HIERARCHY
ROOT Hips
{
	OFFSET -0.001795 -0.223333 0.028219
	CHANNELS 6 Xposition Yposition Zposition Zrotation Yrotation Xrotation 
	JOINT LeftUpLeg
	{
		OFFSET 0.069520 -0.091406 -0.006815
		CHANNELS 3 Zrotation Yrotation Xrotation
		JOINT LeftLeg
		{
			OFFSET 0.034277 -0.375199 -0.004496
			CHANNELS 3 Zrotation Yrotation Xrotation
			JOINT LeftFoot
			{
				OFFSET -0.013596 -0.397961 -0.043693
				CHANNELS 3 Zrotation Yrotation Xrotation
				JOINT LeftToe
				{
					OFFSET 0.026358 -0.055791 0.119288
					CHANNELS 3 Zrotation Yrotation Xrotation
					End Site
					{
						OFFSET 0.000000 0.000000 0.000000
					}
				}
			}
		}
	}
	JOINT RightUpLeg
	{
		OFFSET -0.067670 -0.090522 -0.004320
		CHANNELS 3 Zrotation Yrotation Xrotation
		JOINT RightLeg
		{
			OFFSET -0.038290 -0.382569 -0.008850
			CHANNELS 3 Zrotation Yrotation Xrotation
			JOINT RightFoot
			{
				OFFSET 0.015774 -0.398415 -0.042312
				CHANNELS 3 Zrotation Yrotation Xrotation
				JOINT RightToe
				{
					OFFSET -0.025372 -0.048144 0.123348
					CHANNELS 3 Zrotation Yrotation Xrotation
					End Site
					{
						OFFSET 0.000000 0.000000 0.000000
					}
				}
			}
		}
	}
	JOINT Spine
	{
		OFFSET -0.002533 0.108963 -0.026696
		CHANNELS 3 Zrotation Yrotation Xrotation
		JOINT Spine1
		{
			OFFSET 0.005487 0.135180 0.001092
			CHANNELS 3 Zrotation Yrotation Xrotation
			JOINT Spine2
			{
				OFFSET 0.001457 0.052922 0.025425
				CHANNELS 3 Zrotation Yrotation Xrotation
				JOINT Neck
				{
					OFFSET -0.002778 0.213870 -0.042857
					CHANNELS 3 Zrotation Yrotation Xrotation
					JOINT Head
					{
						OFFSET 0.005152 0.064970 0.051349
						CHANNELS 3 Zrotation Yrotation Xrotation
						End Site
						{
							OFFSET 0.000000 0.000000 0.000000
						}
					}
				}
				JOINT LeftShoulder
				{
					OFFSET 0.078845 0.121749 -0.034090
					CHANNELS 3 Zrotation Yrotation Xrotation
					JOINT LeftArm
					{
						OFFSET 0.090977 0.030469 -0.008868
						CHANNELS 3 Zrotation Yrotation Xrotation
						JOINT LeftForeArm
						{
							OFFSET 0.259612 -0.012772 -0.027456
							CHANNELS 3 Zrotation Yrotation Xrotation
							JOINT LeftHand
							{
								OFFSET 0.249234 0.008986 -0.001171
								CHANNELS 3 Zrotation Yrotation Xrotation
								End Site
								{
									OFFSET 0.000000 0.000000 0.000000
								}
							}
						}
					}
				}
				JOINT RightShoulder
				{
					OFFSET -0.081759 0.118833 -0.038615
					CHANNELS 3 Zrotation Yrotation Xrotation
					JOINT RightArm
					{
						OFFSET -0.096012 0.032551 -0.009143
						CHANNELS 3 Zrotation Yrotation Xrotation
						JOINT RightForeArm
						{
							OFFSET -0.253742 -0.013329 -0.021401
							CHANNELS 3 Zrotation Yrotation Xrotation
							JOINT RightHand
							{
								OFFSET -0.255298 0.007772 -0.005559
								CHANNELS 3 Zrotation Yrotation Xrotation
								End Site
								{
									OFFSET 0.000000 0.000000 0.000000
								}
							}
						}
					}
				}
			}
		}
	}
}
MOTION
Frames: 5
Frame Time: 0.050000
-0.775669 0.964542 1.335674 179.023111 53.939922 -175.320941 4.572190 -9.425754 -30.164112 -7.130350 -4.756823 11.245928 3.473944 8.570348 26.223841 0.000000 0.000000 0.000000 1.184955 -2.231661 -4.560010 -26.821042 -19.564477 41.871272 40.196358 21.703900 20.311912 0.000000 0.000000 0.000000 -1.290395 -0.948560 9.508303 1.103610 -1.583507 -8.633699 1.979773 18.205874 12.095270 10.333640 0.053121 -17.179364 0.000000 0.000000 0.000000 -12.188995 -1.884903 -37.774809 -33.137604 42.512829 -15.535442 -42.839847 -13.092845 -0.013688 0.000000 0.000000 0.000000 8.516251 -10.668813 10.395395 55.005332 21.203929 13.487433 -40.101015 65.192277 -6.151259 0.000000 0.000000 0.000000 
-0.716658 0.948708 1.281270 178.601638 54.469961 -176.992771 0.871600 -7.393939 -26.691281 -6.843406 -6.101423 17.154599 7.587287 6.770395 19.810722 0.000000 0.000000 0.000000 -0.052467 -3.482218 -8.295319 -52.354412 -21.002898 61.656759 53.958928 23.943877 42.090087 0.000000 0.000000 0.000000 -2.381321 -1.544296 11.982343 1.240755 -0.094578 -12.234164 2.281290 16.687586 15.064562 10.633132 1.059335 -19.069081 0.000000 0.000000 0.000000 -11.867614 -2.542813 -38.549390 -34.912085 41.502935 -16.002539 -43.198079 -13.564147 0.208858 0.000000 0.000000 0.000000 8.404759 -13.640699 8.429648 58.937617 17.651738 13.711686 -25.986773 67.090890 2.308866 0.000000 0.000000 0.000000 
-0.663141 0.923745 1.230859 177.444009 53.613961 179.738131 -2.580198 -5.186917 -22.715707 -7.164674 -8.565686 23.598970 12.979438 4.921304 10.388971 0.000000 0.000000 0.000000 1.305314 -5.053368 -15.127324 -82.230039 -13.245304 74.114693 66.009836 23.252110 62.434483 0.000000 0.000000 0.000000 -4.107801 -2.569681 15.120314 2.682088 -0.702087 -10.874517 0.914486 14.065934 13.336173 8.903519 2.222141 -19.358886 0.000000 0.000000 0.000000 -14.879378 -4.203519 -36.460754 -38.777089 33.803228 -13.553600 -43.016905 -18.319144 2.551596 0.000000 0.000000 0.000000 11.697281 -13.035450 9.588025 58.181900 16.814144 9.789354 -9.367712 60.680042 7.996030 0.000000 0.000000 0.000000 
-0.611922 0.911778 1.186171 178.335272 54.273050 178.804852 -4.267962 -2.418057 -16.766668 -6.050377 -9.669215 26.374328 18.401460 4.644471 4.674315 0.000000 0.000000 0.000000 4.797045 -7.522570 -23.610114 -92.052310 -8.047367 74.594897 71.089588 31.308815 65.710541 0.000000 0.000000 0.000000 -2.876076 -3.324924 17.001481 2.438343 -0.758610 -10.302979 0.152404 9.776565 13.857829 7.355442 3.579875 -19.496070 0.000000 0.000000 0.000000 -16.706918 -5.754012 -33.600113 -41.882525 24.746148 -10.424211 -46.630444 -26.133801 6.091860 0.000000 0.000000 0.000000 16.968897 -14.425753 10.692701 56.151422 17.344739 5.382738 1.975455 49.793145 8.911703 0.000000 0.000000 0.000000 
-0.557622 0.926731 1.143577 -179.741139 54.109045 -179.992057 -4.294154 -0.514873 -9.088185 -3.879243 -7.672702 22.671851 22.673888 5.102498 5.780133 0.000000 0.000000 0.000000 9.550419 -9.330317 -30.067058 -74.086003 -11.652306 71.595223 55.488649 39.605336 42.619736 0.000000 0.000000 0.000000 -1.538632 -3.658872 17.458989 3.640842 -0.524679 -11.231936 -0.597314 5.300422 14.784514 7.261750 4.755439 -20.557600 0.000000 0.000000 0.000000 -17.249329 -6.205082 -31.981465 -44.322666 19.062083 -8.705698 -54.111492 -35.184947 11.309548 0.000000 0.000000 0.000000 16.679005 -16.773115 7.020813 57.624890 10.167247 2.645801 6.158480 43.683739 8.811222 0.000000 0.000000 0.000000 
